<svg xmlns="http://www.w3.org/2000/svg" width="10.157" height="12.813" viewBox="0 0 10.157 12.813"><defs><style>.a{fill:#869dad;}</style></defs><g transform="translate(0 0)"><path class="a" d="M-772.227,1582.088h-1.939a1.708,1.708,0,0,0-1.708-1.708,1.708,1.708,0,0,0-1.708,1.708h-1.991A1.46,1.46,0,0,0-781,1583.5v.068a1.468,1.468,0,0,0,.854,1.383v6.833a1.452,1.452,0,0,0,1.486,1.409h5.518a1.443,1.443,0,0,0,1.443-1.444h0v-6.833a1.458,1.458,0,0,0,.854-1.35v-.068a1.469,1.469,0,0,0-1.409-1.41Zm-3.648-.854a1.042,1.042,0,0,1,.983.854h-2.025a1.059,1.059,0,0,1,1.042-.854Zm3.519,10.541a.761.761,0,0,1-.76.76h-5.544a.761.761,0,0,1-.76-.76h0v-6.723h7.039Zm.914-8.183a.769.769,0,0,1-.76.769h-7.372a.769.769,0,0,1-.76-.769h0v-.094a.76.76,0,0,1,.76-.761h7.347a.76.76,0,0,1,.76.76h0Z" transform="translate(781.001 -1580.38)"/><path class="a" d="M-776.4,1595.617a.315.315,0,0,0,.245-.111.44.44,0,0,0,.106-.283h0v-4.568a.43.43,0,0,0-.14-.27.31.31,0,0,0-.261-.074.387.387,0,0,0-.292.344v4.557a.376.376,0,0,0,.342.4Z" transform="translate(779.651 -1584.523)"/><path class="a" d="M-773.658,1595.6a.376.376,0,0,0,.342-.4v-4.551a.376.376,0,0,0-.342-.4.376.376,0,0,0-.342.4v4.55a.376.376,0,0,0,.342.4Z" transform="translate(778.784 -1584.502)"/><path class="a" d="M-771.008,1595.6a.364.364,0,0,0,.342-.383v-.01h0v-4.561a.376.376,0,0,0-.342-.4.376.376,0,0,0-.342.4v4.55a.376.376,0,0,0,.342.4Z" transform="translate(777.945 -1584.502)"/></g></svg>