<svg xmlns="http://www.w3.org/2000/svg" width="16.429" height="16.429" viewBox="0 0 16.429 16.429"><defs><style>.a{fill:#bccbcc;}</style></defs><g transform="translate(0.026 -0.004)"><g transform="translate(-0.026 0.004)"><path class="a" d="M3.745,9.56l3.1,3.1L12.54,6.969l-3.1-3.1ZM16.145,5.3,14.827,3.978A1.766,1.766,0,0,1,12.2,2.427a1.729,1.729,0,0,1,.218-.848L11.107.262a.888.888,0,0,0-1.251,0L.232,9.886a.888.888,0,0,0,0,1.251l1.318,1.322a1.766,1.766,0,0,1,2.4,2.4L5.27,16.175a.888.888,0,0,0,1.251,0l9.624-9.624a.888.888,0,0,0,0-1.251Zm-9.3,8.769L2.327,9.56,9.438,2.449l4.52,4.52Z" transform="translate(0.026 -0.004)"/></g></g></svg>