<svg xmlns="http://www.w3.org/2000/svg" width="30" height="30" viewBox="0 0 30 30"><defs><style>.a{fill:#fb3958;}.b{fill:#fff;}</style></defs><circle class="a" cx="15" cy="15" r="15"/><g transform="translate(7.769 7.626)"><path class="b" d="M11.086,3.72h2.925a4.7,4.7,0,0,1,2.418.624A3.667,3.667,0,0,1,18.2,6.938a12.053,12.053,0,0,1,.176,1.95v4.525a6.4,6.4,0,0,1-.293,2.282,3.608,3.608,0,0,1-2.925,2.574,11.7,11.7,0,0,1-1.95.176H8.765a7,7,0,0,1-2.282-.293A3.706,3.706,0,0,1,3.89,15.227a13.984,13.984,0,0,1-.156-1.95V8.811a6.982,6.982,0,0,1,.273-2.282A3.745,3.745,0,0,1,6.991,3.954a18.177,18.177,0,0,1,1.95-.176h2.145Zm6.046,7.255h0V9.24a11.7,11.7,0,0,0,0-1.677,2.516,2.516,0,0,0-2.2-2.321,10.824,10.824,0,0,0-1.95-.156H9.234a11.936,11.936,0,0,0-1.95.156A2.418,2.418,0,0,0,5.157,7.036a3.686,3.686,0,0,0-.078,1.131v4.018a22.039,22.039,0,0,0,0,2.535,2.477,2.477,0,0,0,2.2,2.223,13.125,13.125,0,0,0,1.95.137H12.92a9.908,9.908,0,0,0,1.7-.1,2.535,2.535,0,0,0,1.424-.566,2.711,2.711,0,0,0,.975-2.126c.1-1.053.1-2.223.117-3.3Z" transform="translate(-3.726 -3.72)"/><path class="b" d="M13.127,9.334A3.784,3.784,0,1,1,9.344,5.57h0A3.745,3.745,0,0,1,13.127,9.3ZM9.344,11.792A2.457,2.457,0,1,0,6.886,9.334,2.457,2.457,0,0,0,9.344,11.792Z" transform="translate(-1.984 -1.961)"/><path class="b" d="M10.87,5.873a.9.9,0,1,1-1.775,0h0a.9.9,0,0,1,1.775,0Z" transform="translate(1.366 -2.401)"/></g></svg>