<svg xmlns="http://www.w3.org/2000/svg" width="18.128" height="18.128" viewBox="0 0 18.128 18.128"><defs><style>.a{fill:#fff;}.b{fill:#fb3958;}</style></defs><path class="a" d="M0,9.064a9.064,9.064,0,1,1,9.064,9.064A9.064,9.064,0,0,1,0,9.064Z"/><circle class="b" cx="7.469" cy="7.469" r="7.469" transform="translate(1.595 1.595)"/><g transform="translate(4.503 4.495)"><path class="a" d="M8.287,3.72H10.1a2.913,2.913,0,0,1,1.5.387,2.272,2.272,0,0,1,1.1,1.607,7.469,7.469,0,0,1,.109,1.209v2.8a3.964,3.964,0,0,1-.181,1.414,2.236,2.236,0,0,1-1.813,1.6,7.251,7.251,0,0,1-1.209.109H6.849a4.339,4.339,0,0,1-1.414-.181,2.3,2.3,0,0,1-1.607-1.813,8.665,8.665,0,0,1-.1-1.209V6.874A4.327,4.327,0,0,1,3.9,5.46a2.32,2.32,0,0,1,1.849-1.6,11.264,11.264,0,0,1,1.209-.109H8.287Zm3.747,4.5h0V7.14a7.251,7.251,0,0,0,0-1.039,1.559,1.559,0,0,0-1.366-1.438,6.707,6.707,0,0,0-1.209-.1H7.139a7.4,7.4,0,0,0-1.209.1A1.5,1.5,0,0,0,4.613,5.775a2.284,2.284,0,0,0-.048.7v2.49a13.657,13.657,0,0,0,0,1.571A1.535,1.535,0,0,0,5.93,11.914,8.133,8.133,0,0,0,7.139,12H9.423a6.139,6.139,0,0,0,1.051-.06,1.571,1.571,0,0,0,.882-.35,1.68,1.68,0,0,0,.6-1.317c.06-.653.06-1.378.073-2.042Z" transform="translate(-3.726 -3.72)"/><path class="a" d="M10.249,7.9A2.345,2.345,0,1,1,7.9,5.57h0a2.32,2.32,0,0,1,2.345,2.308ZM7.9,9.425A1.523,1.523,0,1,0,6.382,7.9,1.523,1.523,0,0,0,7.9,9.425Z" transform="translate(-3.344 -3.334)"/><path class="a" d="M10.191,5.582a.556.556,0,1,1-1.1,0h0a.556.556,0,0,1,1.1,0Z" transform="translate(-2.609 -3.43)"/></g></svg>