<svg xmlns="http://www.w3.org/2000/svg" width="26" height="26" viewBox="0 0 26 26"><defs><style>.a{fill:#eaf1f4;stroke:#d9e5ed;stroke-miterlimit:10;}.b{fill:#869dad;}</style></defs><circle class="a" cx="12.5" cy="12.5" r="12.5" transform="translate(0.5 0.5)"/><path class="b" d="M11.79,15.9a4.91,4.91,0,0,1,.28-1.84,4.85,4.85,0,0,1,1.13-1.5,8.4,8.4,0,0,0,1.07-1.17,2,2,0,0,0,.35-1.14A1.79,1.79,0,0,0,14.22,9,1.59,1.59,0,0,0,13,8.58,1.68,1.68,0,0,0,11.84,9a1.46,1.46,0,0,0-.46,1.14H9.28a3.11,3.11,0,0,1,1-2.43A4,4,0,0,1,13,6.82a3.9,3.9,0,0,1,2.72.88,3.16,3.16,0,0,1,1,2.47A4.06,4.06,0,0,1,15.41,13l-1.07,1a2.88,2.88,0,0,0-.59,1.9Zm-.15,2.69a1.13,1.13,0,0,1,.32-.83,1.21,1.21,0,0,1,.87-.31,1.18,1.18,0,0,1,.87.32,1.14,1.14,0,0,1,.32.82,1.08,1.08,0,0,1-.31.79,1.15,1.15,0,0,1-.88.32,1.13,1.13,0,0,1-.88-.32,1.08,1.08,0,0,1-.31-.79Z"/></svg>